<?xml version="1.0" encoding="iso-8859-1"?>
<!-- Generator: Adobe Illustrator 18.0.0, SVG Export Plug-In . SVG Version: 6.00 Build 0)  -->
<!DOCTYPE svg PUBLIC "-//W3C//DTD SVG 1.1//EN" "http://www.w3.org/Graphics/SVG/1.1/DTD/svg11.dtd">
<svg version="1.1" id="Capa_1" xmlns="http://www.w3.org/2000/svg" xmlns:xlink="http://www.w3.org/1999/xlink" x="0px" y="0px"
	 viewBox="0 0 494.896 494.896" style="enable-background:new 0 0 494.896 494.896;" xml:space="preserve">
<g>
	<path d="M247.452,67.336c13.808,0,25.058-15.098,25.058-33.67C272.51,15.105,261.26,0,247.452,0
		c-13.813,0-25.04,15.105-25.04,33.666C222.412,52.238,233.639,67.336,247.452,67.336z M247.452,7.916
		c9.291,0,17.138,11.793,17.138,25.75c0,13.967-7.847,25.762-17.138,25.762c-9.289,0-17.145-11.795-17.145-25.762
		C230.307,19.709,238.163,7.916,247.452,7.916z"/>
	<g>
		<path d="M395.512,215.343c-0.354-5.583-4.114-10.369-9.454-12.036l-4.678-1.46l2.295-7.319
			c6.366-2.634,12.182-9.225,14.953-18.078c4.175-13.369-0.127-26.593-9.594-29.564c-9.464-2.965-20.546,5.453-24.751,18.805
			c-2.773,8.861-1.746,17.594,1.976,23.377l-2.295,7.318l-4.275-1.48c-5.424-1.878-11.441-0.123-15.005,4.375l-44.634,56.33
			c-2.781,3.507-2.198,8.611,1.323,11.4c0.811,0.629,1.681,1.089,2.622,1.379c3.098,0.971,6.62,0,8.756-2.715l19.51-24.596
			l-7.877,25.195l-7.595,24.185l-11.42,36.47c-7.321-5.745-15.517-10.423-24.344-13.812c0.051-0.371,0.086-0.747,0.089-1.132
			l0.262-95.591h0.031c2.167,0,3.943-1.771,3.943-3.959v-45.721l6.9,17.959c2.772,7.236,11.497,11.146,18.739,8.343
			c7.466-2.868,11.194-11.277,8.35-18.741l-34.89-90.619c-2.394-6.217-8.368-10.318-15.029-10.318h-43.931
			c-6.661,0-12.635,4.101-15.029,10.316l-34.904,90.621c-2.86,7.464,0.876,15.873,8.335,18.741
			c7.256,2.804,15.966-1.107,18.746-8.343l6.908-17.959v45.721c0,2.186,1.763,3.954,3.936,3.958l-0.258,95.542
			c-0.001,0.468,0.045,0.93,0.117,1.385c-8.631,3.374-16.649,7.986-23.826,13.621l-11.44-36.483l-7.561-24.185l-7.879-25.195
			l19.479,24.596c2.166,2.715,5.688,3.686,8.788,2.715c0.94-0.29,1.817-0.75,2.62-1.379c3.491-2.789,4.104-7.893,1.323-11.4
			l-44.51-56.217c-3.472-4.385-9.287-6.176-14.625-4.504l-4.777,1.496l-2.294-7.318c3.72-5.783,4.725-14.516,1.943-23.377
			c-4.165-13.352-15.247-21.77-24.722-18.805c-9.496,2.972-13.758,16.195-9.593,29.564c2.781,8.854,8.597,15.444,14.955,18.078
			l2.293,7.319l-4.83,1.531c-5.315,1.685-9.049,6.464-9.397,12.03l-4.478,71.528c-0.286,4.466,3.107,8.328,7.593,8.611
			c1.003,0.063,1.977-0.065,2.906-0.356c3.141-0.969,5.469-3.781,5.69-7.229l1.935-30.898l7.762,24.815l7.592,24.168l25.973,82.563
			c-0.527,4.024-0.804,8.128-0.804,12.294c0,51.826,42.169,93.992,93.994,93.992s93.988-42.166,93.988-93.992
			c0-4.078-0.262-8.096-0.768-12.039l25.938-82.817l7.559-24.168l7.792-24.815l1.934,30.898c0.232,3.447,2.559,6.26,5.658,7.229
			c0.934,0.291,1.938,0.419,2.941,0.356c4.494-0.283,7.849-4.145,6.671-22.68L395.512,215.343z M166.109,353.855L149.1,299.529
			l8.205-2.568l14.921,47.653C170.012,347.564,167.969,350.65,166.109,353.855z M238.367,81.246
			c-0.586,1.688-0.402,3.568,0.568,5.105l1.697,2.696c0.647,1.026,1.776,1.657,2.971,1.657h7.689c1.211,0,2.328-0.631,2.972-1.657
			l1.713-2.696c0.956-1.537,1.14-3.418,0.556-5.105h9.731l-12.19,24.457v-5.799c0-2.226-1.805-4.031-4.032-4.031h-5.186
			c-2.228,0-4.032,1.806-4.032,4.031v5.771l-12.184-24.43H238.367z M209.809,143.969l-14.539,37.868
			c-1.275,3.297-5.205,5.065-8.535,3.796c-3.394-1.309-5.099-5.128-3.775-8.52l34.929-90.98c0.497-1.295,1.401-2.366,2.764-3.187
			l18.737,37.573c0.386,0.777,0.871,1.479,1.436,2.096v38.981c0,0.464,0.165,0.912,0.464,1.266l4.662,5.508
			c0.372,0.439,0.919,0.693,1.495,0.693c0.575,0,1.121-0.253,1.494-0.692l4.671-5.509c0.299-0.354,0.464-0.803,0.464-1.266v-38.971
			c0.571-0.619,1.064-1.323,1.457-2.105l18.728-37.582c1.274,0.744,2.233,1.848,2.752,3.195l34.928,90.98
			c1.313,3.392-0.383,7.211-3.793,8.52c-3.314,1.27-7.257-0.499-8.518-3.796l-14.54-37.868c-0.676-1.776-2.516-2.813-4.42-2.471
			c-1.881,0.347-3.234,1.977-3.234,3.884v63.102h-59.984v-63.102c0-1.906-1.354-3.537-3.227-3.884
			C212.358,141.156,210.486,142.192,209.809,143.969z M253.023,216.395l-0.229,90.674c-1.769-0.1-3.549-0.156-5.342-0.156
			c-1.973,0-3.93,0.069-5.874,0.189l0.249-90.707H253.023z M312.782,404.846c-2.422,5.14,0.391,19.864-4.78,22.174
			c-7.823,3.491-28.242-16.1-32.99-8.99c-3.363,5.064,8.014,15.122,11.081,20.38c6.304,10.792,2.653,19.903-0.582,23.677
			c-3.514,4.127-13.183,10.043-20.659,14.273c-5.597,1.291-11.416,1.995-17.4,1.995c-13.028,0-25.306-3.245-36.089-8.949
			c1.105-3.632,3.142-8.411,6.429-9.72c6.812-2.739,13.599-6.521,15.669-13.598c2.781-9.652-13.121-6.637-13.893-16.67
			c-0.612-8.068,18.675-21.154,15.279-28.514c-3.551-7.762-30.272-6.712-30.568-15.243c-0.16-4.772,13.513-7.892,14.38-12.585
			c0.972-5.162-6.851-14.192-8.459-19.184c-2.465-7.621-2.77-14.358-2.333-19.523c11.59-6.922,25.127-10.912,39.585-10.912
			c0.846,0,1.682,0.037,2.521,0.064c-6.408,6.286-11.671,15.286,0.482,21.979c4.687,2.584,10.112-1.947,12.565,0
			c5.888,4.645-6.031,16.121,0.834,19.063c5.006,2.146,9.084-5.121,14.772-6.469c5.203-1.246,6.883,11.082,17.384,12.584
			c12.587,1.807,15.886-5.89,16.66-11.458c6.883,10.729,11.192,23.251,12.051,36.702
			C320.769,396.881,315.425,399.203,312.782,404.846z M328.795,353.861c-1.859-3.205-3.902-6.291-6.116-9.242l14.923-47.658
			l8.207,2.568L328.795,353.861z"/>
	</g>
</g>
<g>
</g>
<g>
</g>
<g>
</g>
<g>
</g>
<g>
</g>
<g>
</g>
<g>
</g>
<g>
</g>
<g>
</g>
<g>
</g>
<g>
</g>
<g>
</g>
<g>
</g>
<g>
</g>
<g>
</g>
</svg>
