<svg id="flat" height="512" viewBox="0 0 512 512" width="512" xmlns="http://www.w3.org/2000/svg"><path d="m24 488v-176a48 48 0 0 1 48-48h159.43146a40 40 0 0 1 28.28427 11.71573l76.28427 76.28427v80l-88.65662-88.65662.003.01159a33.69764 33.69764 0 0 1 .65362 6.60633 33.70557 33.70557 0 0 1 -15.00908 28.04472l-8.99092 5.99398v104z" fill="#548aff"/><path d="m184 304 24 24-40 53.33-8 10.67-8-10.67-40-53.33 24-24-32-8 9.54-32h92.92l9.54 32z" fill="#7dafff"/><path d="m168 320v61.33l-8 10.67-8-10.67v-61.33z" fill="#639aff"/><path d="m184 240v64l-24 40-24-40v-64z" fill="#ffceb6"/><path d="m184 240v48h-8a32.004 32.004 0 0 1 -32-32v-16z" fill="#ffbfa1"/><circle cx="144" cy="200" fill="#a36522" r="48"/><path d="m200 240v-32a32 32 0 0 0 -32-32 32 32 0 0 0 -32 32v32z" fill="#b1712c"/><path d="m168 280a32 32 0 0 1 -32-32v-16l24-24a35.09935 35.09935 0 0 0 33.29817 24h6.70183v16a32 32 0 0 1 -32 32z" fill="#ffceb6"/><path d="m104 368 40 40h96v48h-114.74517a32 32 0 0 1 -22.62741-9.37258l-54.62742-54.62742v-24z" fill="#548aff"/><path d="m240 456v-48l24.80639-12.40319a34.06932 34.06932 0 0 1 15.23631-3.59681 34.06946 34.06946 0 0 1 26.17287 12.25872l27.0617 32.474a11.747 11.747 0 0 1 2.72273 7.52028 11.747 11.747 0 0 1 -11.747 11.747 12.759 12.759 0 0 1 -7.6554-2.5518l-28.5976-21.4482-32 24z" fill="#ffceb6"/><path d="m246.39637 343.54491a8.089 8.089 0 0 1 -8.86957-4.59354 25.66838 25.66838 0 0 0 -5.0561-7.1667l-.4707-.47067a8.00018 8.00018 0 0 1 .00025-11.3142 8.00018 8.00018 0 0 1 11.31375.0002l.4712.4712a41.631 41.631 0 0 1 8.336 11.913 7.98515 7.98515 0 0 1 -5.71057 11.15792z" fill="#4f7ff7"/><path d="m336 336h152v152h-152z" fill="#d1e4ff"/><circle cx="412" cy="412" fill="#bed3f7" r="20"/><path d="m424 232v72l-80-72h-96a16 16 0 0 1 -16-16v-176a16 16 0 0 1 16-16h224a16 16 0 0 1 16 16v176a16 16 0 0 1 -16 16z" fill="#ffc431"/><circle cx="280" cy="72" fill="#ffe28f" r="16"/><path d="m320 64h24v16h-24z" fill="#ffb401"/><path d="m360 64h88v16h-88z" fill="#ffb401"/><circle cx="440" cy="184" fill="#ffa100" r="16"/><path d="m376 176h24v16h-24z" fill="#ffb401"/><path d="m288 176h72v16h-72z" fill="#ffb401"/><circle cx="280" cy="128" fill="#ffe28f" r="16"/><path d="m320 120h32v16h-32z" fill="#ffb401"/><path d="m368 120h24v16h-24z" fill="#ffb401"/><path d="m240 464h-114.74512a39.74137 39.74137 0 0 1 -28.28418-11.71533l-48.9707-48.97073a8.00015 8.00015 0 0 1 .00024-11.31416 8.00015 8.00015 0 0 1 11.3137.00022l48.97024 48.97067a23.84541 23.84541 0 0 0 16.9707 7.02933h114.74512z" fill="#4f7ff7"/><path d="m224 408a8 8 0 0 1 -8 8h-72a8.00076 8.00076 0 0 1 -5.65723-2.34326l-34.34277-34.3428a8.00015 8.00015 0 0 1 .00024-11.31416 8.00015 8.00015 0 0 1 11.31371.00028l31.99954 32h68.68651a8 8 0 0 1 8 8z" fill="#4f7ff7"/><path d="m208 456h128a0 0 0 0 1 0 0v32a0 0 0 0 1 0 0h-112a16 16 0 0 1 -16-16v-16a0 0 0 0 1 0 0z" fill="#bed3f7"/></svg>